<?xml version="1.0" encoding="utf-8"?>
<!-- Generator: Adobe Illustrator 27.8.0, SVG Export Plug-In . SVG Version: 6.00 Build 0)  -->
<svg version="1.1" id="Layer_1" xmlns="http://www.w3.org/2000/svg" xmlns:xlink="http://www.w3.org/1999/xlink" x="0px" y="0px"
	 viewBox="0 0 546 144" style="enable-background:new 0 0 546 144;" xml:space="preserve">
<style type="text/css">
	.st0{fill:#00007F;}
	.st1{fill:#F15A22;}
</style>
<g>
	<path class="st0" d="M17.7,7.8c-3.3,0.8-6.2,1.6-8.7,2.5v20.2c2.5-0.8,5.4-1.7,8.7-2.5c3.4-0.8,7.3-1.5,11.9-2V5.8
		C25,6.3,21,6.9,17.7,7.8z"/>
	<path class="st1" d="M9,137.5V46.9c2.5-0.8,5.4-1.7,8.7-2.5c3.4-0.8,7.3-1.5,11.9-2v95H9V137.5z"/>
	<path class="st1" d="M139.2,93.1c0-0.7-0.2-7-2.2-14.8c-2.9-11.4-8.1-20-15.4-25.8c-6.1-4.8-16.9-9.9-33.3-6.3
		C81.5,47.7,74.7,51,68,55.6v-10c-4.5,0.5-8.5,1.1-11.9,2c-3.3,0.8-6.2,1.6-8.7,2.5v87.4h20.5V84.6c0-15.4,30.7-26.9,41.3-16.4
		c6.9,6.9,9.5,15.1,9.5,25.2v44h20.5V93.3V93.1z"/>
	<path class="st1" d="M207.5,139.2c-1.3,0-2.7,0-4.1-0.1c-1.4-0.1-2.8-0.2-4.3-0.3c-6.1-0.6-12-2.1-17.5-4.5s-10.3-5.6-14.5-9.8l0,0
		c-4.2-4.1-7.7-9.1-10.2-14.7s-3.8-11.6-3.8-18.1s1.3-12.6,3.8-18.1c2.5-5.6,6-10.5,10.2-14.7l0,0c4.1-4.1,9-7.4,14.5-9.8
		c5.5-2.4,11.4-3.9,17.5-4.5c1.5-0.1,2.9-0.2,4.3-0.3c1.4-0.1,2.8-0.1,4.1-0.1c4.8,0,9.1,0.3,13,0.8c2.6,0.4,4.9,0.7,7,1.1L222.9,66
		c-1.5-0.3-3.1-0.6-4.9-0.8c-3.2-0.5-6.7-0.7-10.5-0.7c-1.1,0-2.2,0-3.3,0.1s-2.2,0.2-3.3,0.3c-4,0.3-7.7,1.2-11.1,2.7
		c-3.3,1.5-6.2,3.5-8.6,5.7l-0.1,0.1c-2.4,2.4-4.3,5.1-5.6,8.1s-2,6.4-2,10.1s0.7,7.1,2,10s3.2,5.6,5.6,8c2.4,2.4,5.3,4.4,8.7,6
		c3.3,1.5,7.1,2.5,11.1,2.7c1,0.1,2.1,0.2,3.3,0.3c1.1,0.1,2.2,0.1,3.3,0.1c3.8,0,7.4-0.2,10.5-0.7c1.8-0.3,3.4-0.5,4.9-0.8
		l4.6,19.9c-2.1,0.4-4.4,0.8-7,1.1C216.6,138.9,212.2,139.2,207.5,139.2z"/>
	<path class="st1" d="M417.4,7.8c-3.3,0.8-6.2,1.6-8.7,2.5v38.2l-4.1-1.2c-5.8-1.7-12.6-2.5-20.3-2.5c-6.5,0-12.7,1.2-18.4,3.6
		c-5.7,2.4-10.8,5.8-15,10s-7.6,9.3-10,15s-3.6,11.9-3.6,18.4v0.1c-0.1,6.4,1.1,12.5,3.6,18.1s6,10.5,10.2,14.7l0,0
		c4.1,4.1,9,7.4,14.5,9.8s11.5,3.9,17.7,4.5c1.3,0.1,2.7,0.2,4.1,0.3s2.8,0.1,4.1,0.1c4.4,0,8.4-0.2,12.1-0.7s7-1,9.6-1.6
		c2.7-0.5,4.8-1.1,6.3-1.5c1.8-0.5,2.3-0.7,2.4-0.8l0.1-0.1l6.9-2.4V5.8C424.6,6.3,420.7,6.9,417.4,7.8z M408.4,116.7l-2.3,0.5
		c-2,0.4-4.2,0.7-6.7,1s-5.1,0.4-7.9,0.4c-1.1,0-2.2,0-3.3-0.1c-1.1-0.1-2.2-0.2-3.2-0.3c-4-0.3-7.7-1.2-11-2.7s-6.2-3.5-8.6-5.9
		s-4.2-5-5.5-7.9s-2-6.2-2-9.9c0-3.7,0.7-7.1,2-10.3c1.3-3.2,3.2-6,5.6-8.4s5.2-4.3,8.4-5.6c3.2-1.3,6.7-2,10.3-2
		c5.8,0,10.3,0.5,13.9,1.6c3.5,1.1,6.6,2.6,9.1,4.4l1.2,0.9V116.7z"/>
	<path class="st1" d="M534.4,73.5c-2.4-5.7-5.7-10.7-9.9-15c-4.1-4.2-9.1-7.6-14.8-10.1s-11.9-3.7-18.4-3.7s-12.6,1.2-18.3,3.6
		c-5.7,2.4-10.7,5.8-14.9,10c-4.2,4.2-7.7,9.3-10.1,15c-2.5,5.7-3.7,11.9-3.7,18.4s1.2,12.6,3.6,18.3s5.8,10.7,10,14.9
		s9.3,7.7,14.9,10.1c5.6,2.5,11.8,3.7,18.2,3.7s12.6-1.2,18.2-3.7c5.7-2.5,10.7-5.9,14.9-10.1c4.2-4.2,7.6-9.3,10-14.9
		s3.6-11.8,3.6-18.3C538,85.3,536.8,79.1,534.4,73.5z M515.3,102.1c-1.3,3.2-3.2,6-5.6,8.4s-5.2,4.3-8.4,5.6c-3.2,1.3-6.6,2-10.1,2
		c-3.7,0-7.1-0.7-10.2-2s-5.9-3.2-8.3-5.6s-4.3-5.2-5.6-8.4c-1.3-3.2-2-6.7-2-10.3c0-3.7,0.7-7.2,2.1-10.4c1.4-3.1,3.3-5.9,5.6-8.3
		c2.3-2.4,5.2-4.3,8.3-5.7c3.2-1.3,6.7-2,10.3-2c3.5,0,6.9,0.7,10.1,2s6,3.2,8.3,5.5c2.3,2.3,4.2,5.2,5.6,8.4c1.3,3.3,2,6.7,2,10.4
		C517.3,95.4,516.7,98.9,515.3,102.1z"/>
	<path class="st1" d="M320.4,70.6c-2-4.5-4.8-8.7-8.2-12.5c-3.4-3.7-7.6-6.9-12.6-9.3c-4.9-2.4-10.5-3.8-16.6-4h-1.8
		c-6.5,0-12.6,1.3-18.1,3.8c-5.6,2.5-10.5,6-14.6,10.2s-7.3,9.3-9.7,14.9s-3.5,11.7-3.5,18.1v0.1c-0.1,6.4,1.1,12.5,3.6,18.1
		s6,10.5,10.2,14.7l0,0c4.1,4.1,9,7.4,14.5,9.8s11.5,3.9,17.7,4.5c1.3,0.1,2.7,0.2,4.1,0.3s2.8,0.1,4.1,0.1c4.6,0,8.7-0.2,12.2-0.7
		c2.6-0.4,5.5-0.9,8.5-1.5l-4.1-20c-2.5,0.5-4.8,0.9-7,1.2c-3.1,0.5-6.4,0.7-9.7,0.7c-1.1,0-2.2,0-3.3-0.1c-1.1-0.1-2.2-0.2-3.3-0.3
		c-4.5-0.4-7.6-0.7-11.4-2.1c-3.4-1.3-6.2-3.8-8.5-6.4c-1.7-1.9-2.2-3.1-3.4-5.7c-0.7-1.4-1.5-3.7-1.5-5.8c9.5,0,62.6,0,62.6,0
		c0.3-0.8,0.6-1.6,0.8-2.4v-0.1v-0.1c0.5-1.4,0.9-3,1.2-4.9c0.3-1.8,0.5-3.9,0.5-6.2C323.4,79.8,322.4,75,320.4,70.6z M258.1,84.2
		c1.3-11.1,10.8-19.7,22.2-19.7s20.9,8.6,22.2,19.7H258.1z"/>
</g>
</svg>
